PathFileType	4	(X/Y/Z)	C:\Users\WrightLab\Desktop\Jo\P5V47.trc
DataRate	CameraRate	NumFrames	NumMarkers	Units	OrigDataRate	OrigDataStartFrame	OrigNumFrames
100.00	100.00	       7	19	mm	100.00	558	       892
Frame#	Time	Headset_Front			Headset_Back			Headset_Left			Headset_Right			Left_Shoulder			Right_Shoulder			Sternum			C7			Left Elbow			Right Elbow			Left Wrist			Right Wrist			Left ASIS			Right ASIS			S2			Left Knee			Right Knee			Left Ankle			Right Ankle			
		X1	Y1	Z1	X2	Y2	Z2	X3	Y3	Z3	X4	Y4	Z4	X5	Y5	Z5	X6	Y6	Z6	X7	Y7	Z7	X8	Y8	Z8	X9	Y9	Z9	X10	Y10	Z10	X11	Y11	Z11	X12	Y12	Z12	X13	Y13	Z13	X14	Y14	Z14	X15	Y15	Z15	X16	Y16	Z16	X17	Y17	Z17	X18	Y18	Z18	X19	Y19	Z19	

558	5.570	3.40135	1534.78528	95.20095							-132.06474	1597.95996	120.51580	-94.64029	1498.21973	-259.75250	-259.65030	1455.62891	117.34187	-110.52979	1318.20166	-30.72948	-300.29352	1515.70215	-115.74733	-49.00623	1199.38049	-317.68402	-266.45181	1170.02893	173.83772	8.48184	1107.81616	-114.18301	-44.32143	1082.50330	191.00642	-36.81931	930.63055	-176.90796	-150.25084	945.06598	96.18805	-340.15375	959.48480	-190.20294	-32.13806	506.62408	-244.26094	-147.02029	488.21451	113.48199	-104.32302	88.39929	-206.35152	-492.08340	280.39575	-24.78876	
559	5.580	9.24069	1535.73474	99.21934							-126.01182	1598.98291	122.84517	-85.77873	1498.63000	-257.17340	-251.98073	1456.94775	119.19142	-103.44444	1319.00378	-27.61724	-292.03702	1517.33276	-113.80717	-39.57703	1201.08130	-316.13742	-260.52814	1171.34595	176.22044	17.02299	1109.27515	-111.37086	-39.09205	1083.44995	194.74933	-29.73532	930.34991	-172.21008	-143.70139	947.16583	99.81045	-330.59705	960.53137	-187.44275	-27.68484	508.20285	-244.73349	-129.20560	494.54086	117.43777	-104.00367	88.57428	-206.54274	-469.49432	279.48517	-21.26863	
560	5.590	15.22858	1536.05420	104.47771							-120.77552	1600.29419	125.80338	-77.15763	1499.13025	-254.93080	-245.04575	1458.89868	121.49960	-95.92112	1319.65576	-24.46460	-282.98526	1518.37097	-112.14677	-30.43170	1201.22522	-312.84775	-255.22621	1173.19092	178.70569	25.38436	1110.40186	-108.27544	-33.58984	1083.85107	198.56366	-22.37427	930.47888	-167.36237	-137.59879	948.46906	103.74654	-321.41422	961.78192	-185.78879	-23.02711	510.17761	-244.07698	-112.74712	500.99149	120.63935	-104.04305	89.00862	-206.35547	-446.34949	276.99130	-17.01610	
561	5.600	20.79766	1536.18188	107.99321							-115.62408	1601.41980	128.75565	-68.89165	1499.51367	-252.48517	-237.53168	1460.28516	123.44617	-88.66375	1320.37012	-22.32110	-274.96274	1519.03748	-109.53659	-22.11031	1201.95776	-310.08508	-249.97914	1174.32898	181.20416	33.45207	1111.10803	-105.57484	-28.23763	1084.62805	202.95100	-15.62625	930.28674	-162.86983	-132.03679	949.93066	109.20037	-312.39493	963.01556	-183.27129	-18.40287	511.76099	-242.87462	-98.54813	506.02310	123.47059	-104.36530	89.42237	-205.70955	-423.56729	274.24084	-14.27302	
562	5.610	26.81776	1536.97876	113.90927							-109.51904	1601.87708	131.22536	-59.85912	1500.00281	-249.44443	-229.79140	1461.03174	125.27549	-80.98695	1320.60486	-19.61489	-266.34454	1519.87341	-108.01209	-13.13400	1202.24487	-307.45728	-244.45815	1175.92578	183.41708	41.45253	1112.34387	-102.96368	-22.71649	1085.64990	206.97638	-9.09666	930.13068	-158.11082	-126.92590	950.98395	112.78203	-303.74176	964.12286	-180.73473	-13.86586	512.79852	-239.77521	-84.29881	510.24066	125.98177	-104.50978	89.90199	-205.14386	-400.60095	270.18692	-9.69993	
563	5.620	32.37214	1537.65210	117.96445							-103.91782	1602.60120	134.18317	-51.18769	1500.46497	-246.71915	-223.04118	1462.58289	127.53013	-73.69498	1321.35059	-16.33158	-258.21271	1520.98523	-106.23276	-5.27596	1202.36230	-304.30472	-239.40437	1177.15845	186.08379	49.62574	1113.23608	-99.77895	-18.18785	1085.74243	211.42061	-2.15508	930.16235	-154.60617	-121.10182	951.35968	116.27744	-295.59232	964.79974	-177.18961	-8.28695	513.30963	-237.00729	-69.77327	514.12097	128.49345	-103.84347	90.49337	-204.73036	-376.35327	264.82257	-4.93144	
564	5.630	38.73394	1537.80396	123.98992							-97.59534	1603.17407	136.71141	-42.87299	1500.56702	-243.92284	-215.92023	1463.08142	129.78809	-65.72864	1321.68530	-13.13953	-250.43802	1521.66394	-104.10860	3.36604	1202.58691	-301.53241	-233.78877	1178.50159	188.96861	57.29898	1113.72791	-96.16632	-13.14244	1086.79370	215.76175	4.22388	929.81006	-151.22433	-115.18744	951.70270	120.19727	-287.74359	966.38452	-174.17892	-3.20722	513.59009	-233.03040	-54.75269	518.83466	132.94893	-103.91557	90.38274	-204.15295	-351.72882	258.88754	-1.35885	
